<svg xmlns="http://www.w3.org/2000/svg" viewBox="0 0 209.14 209.14" width="512" height="512"><path d="M60.405 205.268c-6.136 0-11.127-4.991-11.127-11.127 0-5.097 3.444-9.404 8.127-10.717v-70.783a11.143 11.143 0 0 1-5.146-3.144l-30.148 16.89c.095.584.144 1.183.144 1.793 0 6.136-4.992 11.127-11.128 11.127S0 134.316 0 128.18s4.992-11.128 11.127-11.128a11.11 11.11 0 0 1 8.44 3.883l29.937-16.771a11.172 11.172 0 0 1-.227-2.239c0-5.097 3.444-9.403 8.127-10.716v-40.9a11.171 11.171 0 0 1-7.717-7.717H21.845c-1.313 4.684-5.62 8.128-10.717 8.128C4.992 50.719 0 45.727 0 39.591s4.992-11.128 11.127-11.128c5.097 0 9.405 3.444 10.717 8.128h27.843c1.313-4.684 5.62-8.128 10.717-8.128s9.405 3.444 10.717 8.128h26.594c1.313-4.684 5.621-8.128 10.717-8.128 6.136 0 11.128 4.992 11.128 11.128 0 5.097-3.444 9.404-8.128 10.717v48.616h40.127a11.172 11.172 0 0 1 7.716-7.716V25.715c-4.683-1.313-8.127-5.619-8.127-10.716 0-6.136 4.991-11.128 11.127-11.128S173.404 8.864 173.404 15c0 5.097-3.444 9.403-8.128 10.716v65.493c4.684 1.313 8.128 5.619 8.128 10.716 0 2.436-.786 4.691-2.119 6.525l20.201 20.202a11.066 11.066 0 0 1 6.525-2.119c6.136 0 11.128 4.991 11.128 11.127 0 5.097-3.444 9.404-8.128 10.717v20.881c4.684 1.313 8.128 5.619 8.128 10.716 0 6.136-4.992 11.128-11.128 11.128s-11.127-4.992-11.127-11.128c0-5.097 3.444-9.403 8.127-10.716v-20.881c-4.683-1.313-8.127-5.62-8.127-10.717 0-1.513.304-2.956.853-4.271L166.549 112.2c-1.316.549-2.76.853-4.272.853-5.097 0-9.403-3.444-10.716-8.128h-40.127v41.298c4.684 1.313 8.128 5.62 8.128 10.717 0 6.136-4.992 11.128-11.128 11.128s-11.128-4.992-11.128-11.128c0-5.097 3.444-9.404 8.128-10.717v-41.298H71.122a11.171 11.171 0 0 1-7.717 7.717v70.783c4.684 1.313 8.128 5.62 8.128 10.717 0 6.135-4.992 11.126-11.128 11.126zm0-16.255c-2.827 0-5.127 2.301-5.127 5.128s2.3 5.127 5.127 5.127c2.828 0 5.128-2.3 5.128-5.127s-2.301-5.128-5.128-5.128zm137.607-14.167c-2.827 0-5.127 2.3-5.127 5.127s2.3 5.128 5.127 5.128 5.128-2.301 5.128-5.128-2.301-5.127-5.128-5.127zm-89.578-23.035c-2.827 0-5.128 2.301-5.128 5.128s2.301 5.128 5.128 5.128 5.128-2.301 5.128-5.128-2.301-5.128-5.128-5.128zm89.578-19.278c-2.827 0-5.127 2.3-5.127 5.127s2.3 5.128 5.127 5.128 5.128-2.301 5.128-5.128-2.301-5.127-5.128-5.127zm-186.885-9.481C8.3 123.052 6 125.353 6 128.18s2.3 5.127 5.127 5.127c2.828 0 5.128-2.3 5.128-5.127a5.105 5.105 0 0 0-.469-2.14 5.131 5.131 0 0 0-4.659-2.988zm151.149-26.255c-2.827 0-5.127 2.3-5.127 5.127s2.3 5.128 5.127 5.128a5.098 5.098 0 0 0 2.897-.899c.082-.067.167-.129.255-.187a5.121 5.121 0 0 0 1.976-4.042c0-2.827-2.3-5.127-5.128-5.127zm-106.385 7.558a5.132 5.132 0 0 0 4.514 2.697c2.828 0 5.128-2.301 5.128-5.128s-2.3-5.127-5.128-5.127a5.133 5.133 0 0 0-5.127 5.127c0 .771.171 1.503.477 2.159l.007.014c.047.084.09.17.129.258zm15.231-5.431h34.312V50.308a11.17 11.17 0 0 1-7.717-7.717H71.122a11.171 11.171 0 0 1-7.717 7.717v40.9a11.172 11.172 0 0 1 7.717 7.716zm37.312-64.461c-2.827 0-5.128 2.301-5.128 5.128s2.301 5.128 5.128 5.128 5.128-2.301 5.128-5.128-2.301-5.128-5.128-5.128zm-48.029 0c-2.827 0-5.127 2.301-5.127 5.128s2.3 5.128 5.127 5.128c2.828 0 5.128-2.301 5.128-5.128s-2.301-5.128-5.128-5.128zm-49.278 0C8.3 34.463 6 36.764 6 39.591s2.3 5.128 5.127 5.128c2.828 0 5.128-2.301 5.128-5.128s-2.3-5.128-5.128-5.128zM162.276 9.872c-2.827 0-5.127 2.301-5.127 5.128s2.3 5.127 5.127 5.127 5.128-2.3 5.128-5.127-2.3-5.128-5.128-5.128z" fill="#e0e7ee"/></svg>
